<svg width="1024" height="1024" viewBox="0 0 1024 1024" fill="none" xmlns="http://www.w3.org/2000/svg">
  <defs>
    <linearGradient id="bg" x1="140" y1="108" x2="896" y2="924" gradientUnits="userSpaceOnUse">
      <stop stop-color="#121826"/>
      <stop offset="0.48" stop-color="#2A3E72"/>
      <stop offset="1" stop-color="#79A9FF"/>
    </linearGradient>
    <linearGradient id="miniBar" x1="0" y1="0" x2="0" y2="1">
      <stop stop-color="#FFFFFF"/>
      <stop offset="1" stop-color="#C1DFFF"/>
    </linearGradient>
    <radialGradient id="glowTop" cx="0" cy="0" r="1" gradientUnits="userSpaceOnUse" gradientTransform="translate(782 186) rotate(131.482) scale(362.768)">
      <stop stop-color="#FFFFFF" stop-opacity="0.92"/>
      <stop offset="1" stop-color="#FFFFFF" stop-opacity="0"/>
    </radialGradient>
    <radialGradient id="glowBottom" cx="0" cy="0" r="1" gradientUnits="userSpaceOnUse" gradientTransform="translate(244 794) rotate(-33.8338) scale(348.927)">
      <stop stop-color="#6294FF" stop-opacity="0.72"/>
      <stop offset="1" stop-color="#FFFFFF" stop-opacity="0"/>
    </radialGradient>
  </defs>
  <rect width="1024" height="1024" fill="url(#bg)"/>
  <circle cx="782" cy="186" r="184" fill="url(#glowTop)"/>
  <circle cx="244" cy="794" r="188" fill="url(#glowBottom)"/>
  <circle cx="202" cy="282" r="82" fill="#FFFFFF" fill-opacity="0.12"/>
  <rect x="84" y="84" width="856" height="856" rx="196" fill="#FFFFFF" fill-opacity="0.08"/>
  <rect x="106" y="106" width="812" height="812" rx="174" stroke="#FFFFFF" stroke-opacity="0.16" stroke-width="2"/>
  <g transform="translate(0 -6) rotate(-8 512 382)">
    <rect x="306" y="232" width="414" height="264" rx="92" fill="#FFFFFF" fill-opacity="0.18"/>
    <rect x="306" y="232" width="414" height="264" rx="92" fill="#FFFFFF" fill-opacity="0.48"/>
    <rect x="306.5" y="232.5" width="413" height="263" rx="91.5" stroke="#FFFFFF" stroke-opacity="0.36"/>
    <rect x="364" y="292" width="126" height="26" rx="13" fill="#FFFFFF" fill-opacity="0.58"/>
    <rect x="364" y="384" width="38" height="42" rx="19" fill="url(#miniBar)"/>
    <rect x="414" y="360" width="38" height="66" rx="19" fill="url(#miniBar)"/>
    <rect x="464" y="330" width="38" height="96" rx="19" fill="url(#miniBar)"/>
    <rect x="514" y="346" width="38" height="80" rx="19" fill="url(#miniBar)"/>
    <rect x="564" y="314" width="38" height="112" rx="19" fill="url(#miniBar)"/>
  </g>
  <rect x="240" y="520" width="544" height="248" rx="112" fill="#FFFFFF" fill-opacity="0.14"/>
  <rect x="240" y="520" width="544" height="248" rx="112" fill="#FFFFFF" fill-opacity="0.30"/>
  <rect x="240.5" y="520.5" width="543" height="247" rx="111.5" stroke="#FFFFFF" stroke-opacity="0.34"/>
  <rect x="322" y="590" width="218" height="22" rx="11" fill="#FFFFFF" fill-opacity="0.22"/>
  <circle cx="682" cy="640" r="34" fill="#FFFFFF" fill-opacity="0.28"/>
  <path d="M240 606H784" stroke="#FFFFFF" stroke-opacity="0.12" stroke-width="2"/>
  <path d="M168 764C280 706 405 694 520 710C634 726 729 774 839 838" stroke="#FFFFFF" stroke-opacity="0.18" stroke-width="28" stroke-linecap="round"/>
</svg>
