<svg width="1024" height="1024" viewBox="0 0 1024 1024" fill="none" xmlns="http://www.w3.org/2000/svg">
  <defs>
    <linearGradient id="bg" x1="144" y1="84" x2="860" y2="944" gradientUnits="userSpaceOnUse">
      <stop stop-color="#2E395E"/>
      <stop offset="0.52" stop-color="#556EA8"/>
      <stop offset="1" stop-color="#7193F2"/>
    </linearGradient>
    <linearGradient id="walletFront" x1="502" y1="328" x2="502" y2="626" gradientUnits="userSpaceOnUse">
      <stop stop-color="#EFF4FF" stop-opacity="0.96"/>
      <stop offset="1" stop-color="#879DC7" stop-opacity="0.68"/>
    </linearGradient>
    <linearGradient id="walletBack" x1="512" y1="248" x2="512" y2="494" gradientUnits="userSpaceOnUse">
      <stop stop-color="#DDE7FA" stop-opacity="0.92"/>
      <stop offset="1" stop-color="#768AB6" stop-opacity="0.62"/>
    </linearGradient>
    <radialGradient id="glowTop" cx="0" cy="0" r="1" gradientUnits="userSpaceOnUse" gradientTransform="translate(814 168) rotate(136) scale(274)">
      <stop stop-color="#FFFFFF" stop-opacity="0.94"/>
      <stop offset="1" stop-color="#FFFFFF" stop-opacity="0"/>
    </radialGradient>
    <radialGradient id="glowBottom" cx="0" cy="0" r="1" gradientUnits="userSpaceOnUse" gradientTransform="translate(144 850) rotate(-18) scale(276)">
      <stop stop-color="#D8E4FF" stop-opacity="0.88"/>
      <stop offset="1" stop-color="#FFFFFF" stop-opacity="0"/>
    </radialGradient>
  </defs>
  <rect width="1024" height="1024" fill="url(#bg)"/>
  <ellipse cx="814" cy="168" rx="202" ry="180" fill="url(#glowTop)"/>
  <ellipse cx="144" cy="850" rx="190" ry="172" fill="url(#glowBottom)"/>
  <ellipse cx="142" cy="198" rx="98" ry="98" fill="#FFFFFF" fill-opacity="0.22"/>
  <rect x="112" y="88" width="800" height="824" rx="188" fill="#FFFFFF" fill-opacity="0.11"/>
  <rect x="134" y="110" width="756" height="780" rx="168" stroke="#FFFFFF" stroke-opacity="0.22" stroke-width="2"/>
  <path d="M228 182C304 94 498 70 700 94C796 104 846 136 878 182" stroke="#FFFFFF" stroke-opacity="0.26" stroke-width="18" stroke-linecap="round"/>
  <rect x="318" y="248" width="388" height="246" rx="102" fill="url(#walletBack)"/>
  <rect x="318.5" y="248.5" width="387" height="245" rx="101.5" stroke="#FFFFFF" stroke-opacity="0.36"/>
  <rect x="356" y="300" width="232" height="30" rx="15" fill="#FFFFFF" fill-opacity="0.26"/>
  <rect x="270" y="328" width="464" height="298" rx="120" fill="url(#walletFront)"/>
  <rect x="270.5" y="328.5" width="463" height="297" rx="119.5" stroke="#FFFFFF" stroke-opacity="0.36"/>
  <rect x="328" y="384" width="224" height="28" rx="14" fill="#BFD6FF" fill-opacity="0.34"/>
  <path d="M270 450H734" stroke="#516A9A" stroke-opacity="0.54" stroke-width="3"/>
  <circle cx="645" cy="425" r="33" fill="#FFFFFF" fill-opacity="0.36"/>
  <path d="M220 810C312 718 468 692 610 712C700 724 778 762 844 820" stroke="#FFFFFF" stroke-opacity="0.22" stroke-width="26" stroke-linecap="round"/>
</svg>